<?xml version="1.0" encoding="utf-8"?>
<!-- Generator: Adobe Illustrator 26.0.1, SVG Export Plug-In . SVG Version: 6.00 Build 0)  -->
<svg version="1.1" id="Layer_2_00000104685027854347725380000005759158454769998251_"
	 xmlns="http://www.w3.org/2000/svg" xmlns:xlink="http://www.w3.org/1999/xlink" x="0px" y="0px" viewBox="0 0 595.3 841.9"
	 style="enable-background:new 0 0 595.3 841.9;" xml:space="preserve">
<style type="text/css">
	.st0{fill:#F0F0F0;}
</style>
<path class="st0" d="M142.7,447.5c-1.5-0.6-2.3-1-3.2-1.3c-10.2-3.2-20.2-7-29.2-13.3c-17.1-12-21.7-35.1-10.3-53.5
	c10.3-16.6,24.5-26.9,43-30.1c10.2-1.8,20.5-2.4,30.6,0.1c8.9,2.2,15.2,8,17.5,17.8c2.3,9.6-1.2,17.4-7.9,23.6
	c-6.6,6.1-14.6,8.9-23,10.8c-1.4,0.3-2.9,0.9-4.3,0.9c-0.9,0-1.9-0.8-2.9-1.2c0.6-0.8,1.1-1.8,1.9-2.2c8.4-4.6,14.9-11.3,19.3-20.3
	c1.8-3.7,2.7-7.7,2.4-12c-0.2-4.9-2.4-8.3-6.3-10.6c-6-3.6-12.3-3.1-18.5-1.4c-13.6,3.8-24.5,11.9-32.1,24.8
	c-12.8,21.8-4.6,48.7,17.7,57.6c6,2.4,12.3,4,18.4,6c1.2,0.4,2.4,1,3.6,1.7c2.1,1.2,2.2,2.2,0.1,3.5c-4,2.5-8.2,4.6-12.1,7.1
	c-22.1,14.4-41.5,32-53.9,57c-18.4,37-15.9,73,6,107.3c14.4,22.5,34.3,37.2,58.3,45.8c28,10.1,56.4,10.2,85,4
	c21.1-4.6,40.9-12.9,58.9-25.8c15.4-11,28.2-24.9,36.7-42.9c2.2-4.7,3.6-9.8,5.5-14.7c0.4-1,1.4-1.8,2.1-2.7
	c0.2,1.2,0.9,2.5,0.6,3.6c-1.4,7.1-4.1,13.6-7.6,19.8c-11,19.4-26,34.5-43.8,46.1c-29.5,19.2-61.7,27.5-95.9,27.1
	c-19.8-0.2-39.4-2.7-58.5-8.6c-20.1-6.2-38.4-15.9-54.3-30.9c-14.8-14-25.9-30.7-30.8-51.5c-6.6-28.2-4-55.1,11.7-79.5
	c11.5-17.9,25-33.5,42.5-44.4c9.6-6,19.8-10.9,29.8-16.3C140.5,448.6,141.2,448.2,142.7,447.5z"/>
<path class="st0" d="M277.7,552.1c-2.7,4.2-5.4,8.5-8.2,12.7c-5.6,8.1-12.1,15.1-20.9,19c-5.2,2.3-10.6,2.8-16.1,1
	c-6.6-2.2-9.9-7.5-9.9-15.8c0-9.3,2.2-18.1,4.6-26.9c3.4-12.6,6.8-25.2,10.1-37.8c0.6-2.1,0.8-4.5,0.8-6.7c-0.1-3.4-1.6-4.9-4.7-5.2
	c-0.8-0.1-1.6,0.2-2.3-0.1c-0.8-0.3-1.4-0.9-2.1-1.4c0.6-0.6,1.2-1.4,1.9-1.7c8-2.4,16.1-4.9,24.1-7.1c7-1.9,8.5-0.1,6.5,7.4
	c-5.6,21.1-11.4,42.2-16.9,63.3c-1.4,5.2-2.6,10.4-1.5,15.9c1.1,5.4,3.6,7,8.5,5.4c5.8-2,10-6.4,13.8-11.2
	c10.6-13.6,17.7-29.2,22.2-46.3c2.3-8.7,4.6-17.4,7-26.1c0.3-1,1.4-2.2,2.3-2.5c6-1.7,12.1-3.2,18.3-4.7c2.5-0.6,3,0.1,2.2,2.8
	c-7,24.6-14.1,49.2-21,73.8c-0.9,3.2-1.7,6.6-1.9,9.9c-0.1,1.7,0.6,4.4,1.8,5.1c1.1,0.7,3.6,0,4.9-1c2.3-1.6,4.2-3.9,6.2-5.9
	c0.6-0.6,1-1.4,1.7-1.7s1.5-0.3,2.3-0.4c0,0.8,0.2,1.8-0.1,2.3c-2.6,3.7-5,7.8-8.1,10.9c-6.4,6.4-13.9,8.7-22.5,5.9
	c-3.6-1.2-6-3.5-5.8-7.6c0.3-5.9,1-11.8,1.8-17.6c0.3-2.6,1.2-5.1,1.8-7.6C278,552.2,277.8,552.2,277.7,552.1z"/>
<path class="st0" d="M219.3,437.9c-0.3,1.5-0.4,2.7-0.7,3.8c-9.6,34.6-19.2,69.1-28.8,103.7c-2.1,7.7-3.9,15.4-5.8,23.2
	c-0.8,3.5-1.2,7.4,1.4,9.9c2.6,2.5,5.9,0.8,8.9-0.2c1.3-0.4,2.5-0.9,3.8-1.4c0.2,0.3,0.4,0.5,0.6,0.8c-0.8,1.3-1.5,2.8-2.5,4
	c-4.1,5-9.7,7.5-15.6,8.2c-3.8,0.5-7.8,0-11.6-0.6c-4.3-0.7-6.4-4.1-7.1-8.7c-1.2-8,0.2-15.6,2.3-23.1c7-24.6,14.1-49.1,21.2-73.7
	c1.9-6.5,3.7-13,5.4-19.5c0.4-1.4,0.6-2.8,0.7-4.2c0.4-3.9-0.5-5.9-3.8-7.4c-1.7-0.8-3.7-1.1-5.4-1.9c-0.6-0.2-1-1-1.6-1.5
	c0.5-0.5,1-1.3,1.6-1.5c11.4-3.3,22.8-6.5,34.3-9.7C217.4,437.9,218.2,438,219.3,437.9z"/>
<path class="st0" d="M456.4,553.3c-0.2,1-0.3,2.1-0.8,2.8c-10.4,15.8-23.6,25.9-42.5,24.9c-15.1-0.8-24.1-11-24.4-28.1
	c-0.3-14.8,4-28.3,11.1-40.7c6.7-11.7,14.5-22.6,25.9-29.4c9.5-5.6,19.7-8.3,30.4-4.4c11.8,4.3,15.8,18.2,8.9,29.5
	c-5.2,8.5-13.1,12.7-21.6,15.8c-8.6,3.1-17.5,4.9-26.7,4.2c-2-0.2-3,0.5-3.5,2.7c-2,8-3.8,16.1-2.4,24.5c2.2,13.2,10,18.3,21.9,14.4
	c7.5-2.5,13.4-7.4,19-13c1.3-1.3,2.6-2.6,3.9-3.9C455.8,552.9,456.1,553.1,456.4,553.3z M415.6,522.7c0.9,0.1,1.3,0.2,1.7,0.2
	c10.4-1.3,19.7-5.3,27.3-13.4c3.8-4,6.7-8.7,7.2-14.7c0.4-4.1,0-8.1-3.5-10.6c-3.6-2.5-6.9-0.7-9.9,1.5
	C426.2,494.5,420.1,507.7,415.6,522.7z"/>
<path class="st0" d="M358.1,519.9c0.7-1.1,1.4-2.2,2.1-3.3c5.3-8,10.5-16.2,16-24.1c3.2-4.6,7.5-8.1,12.8-9.8c0.7-0.2,1.3-0.4,2-0.5
	c5.3-0.8,6.7,0.9,5,6.2c-1.4,4.6-2.9,9.1-4.5,13.6c-0.2,0.7-1.5,1.6-2,1.5c-8.1-2.6-14.1,1.6-19.5,7c-6.5,6.5-10.9,14.8-13.8,23.7
	c-5.3,15.8-10.2,31.7-15.1,47.6c-0.8,2.6-1.9,3.2-4.2,3.2c-4.6,0-9.2,0.5-13.8,0.7c-0.7,0-1.4-0.1-2.5-0.2c1-3.8,1.9-7.3,2.9-10.7
	c6.3-22.8,12.6-45.7,18.9-68.6c0-0.2,0.1-0.4,0.2-0.5c1.8-6.8,0.7-8.6-5.5-10.2c-1.4-0.4-2.7-1.2-4-1.8c1.4-0.8,2.6-1.9,4.1-2.2
	c8.9-2.2,17.8-4.3,26.7-6.4c3-0.7,3.7,0,2.7,3.3c-2.8,9.7-5.8,19.4-8.7,29.1c-0.2,0.7-0.3,1.4-0.5,2
	C357.5,519.6,357.8,519.7,358.1,519.9z"/>
<path class="st0" d="M505.3,439.4c-0.1,3.9-1.5,7-4.1,8.8c-7.4,5.2-14.9,10.3-22.5,15.2c-3.6,2.3-7.5,3.9-11.4,5.6
	c-0.9,0.4-2.1,0.1-3.1,0.1c0.4-1,0.5-2.2,1.1-2.9c8.6-10.3,17.2-20.5,25.9-30.6c2.5-3,5.9-3.5,9.4-2.7
	C503.5,433.6,505.3,436.4,505.3,439.4z"/>
</svg>
