<?xml version="1.0" encoding="utf-8"?>
<!-- Generator: Adobe Illustrator 26.0.1, SVG Export Plug-In . SVG Version: 6.00 Build 0)  -->
<svg version="1.1" id="Layer_2" xmlns="http://www.w3.org/2000/svg" xmlns:xlink="http://www.w3.org/1999/xlink" x="0px" y="0px"
	 viewBox="0 0 595.28 841.89" style="enable-background:new 0 0 595.28 841.89;" xml:space="preserve">
<path d="M142.67,447.49c-1.49-0.62-2.32-1.04-3.18-1.31c-10.21-3.2-20.19-6.95-29.21-13.3c-17.12-12.05-21.72-35.07-10.3-53.45
	c10.32-16.6,24.53-26.94,42.95-30.09c10.21-1.75,20.46-2.36,30.58,0.12c8.86,2.18,15.2,8.05,17.51,17.81
	c2.27,9.61-1.17,17.38-7.9,23.63c-6.63,6.15-14.64,8.86-22.96,10.75c-1.44,0.33-2.89,0.87-4.34,0.88c-0.95,0-1.91-0.78-2.86-1.21
	c0.64-0.76,1.15-1.81,1.94-2.24c8.42-4.59,14.95-11.26,19.34-20.33c1.81-3.74,2.67-7.72,2.45-12c-0.24-4.9-2.44-8.34-6.3-10.64
	c-5.97-3.56-12.3-3.12-18.54-1.4c-13.62,3.75-24.49,11.87-32.11,24.82c-12.81,21.77-4.61,48.71,17.71,57.65
	c6.02,2.41,12.3,4.01,18.45,6.05c1.24,0.41,2.44,1.01,3.59,1.66c2.11,1.2,2.23,2.24,0.15,3.55c-3.98,2.51-8.2,4.57-12.14,7.14
	c-22.08,14.4-41.47,31.98-53.9,56.98c-18.38,36.96-15.86,73.01,5.98,107.27c14.38,22.54,34.35,37.21,58.3,45.83
	c28.03,10.09,56.39,10.16,84.98,3.95c21.08-4.58,40.9-12.93,58.86-25.82c15.36-11.03,28.16-24.92,36.66-42.92
	c2.21-4.67,3.57-9.81,5.45-14.68c0.4-1.03,1.38-1.81,2.09-2.7c0.23,1.22,0.85,2.52,0.64,3.63c-1.36,7.09-4.12,13.63-7.59,19.76
	c-10.98,19.38-25.95,34.46-43.78,46.06c-29.47,19.16-61.68,27.5-95.91,27.11c-19.82-0.23-39.37-2.7-58.48-8.57
	c-20.07-6.17-38.45-15.93-54.29-30.87c-14.78-13.95-25.88-30.69-30.77-51.45c-6.63-28.19-4-55.06,11.71-79.51
	c11.46-17.85,24.96-33.51,42.52-44.35c9.64-5.96,19.84-10.87,29.78-16.26C140.5,448.62,141.25,448.23,142.67,447.49z"/>
<path d="M277.66,552.1c-2.73,4.23-5.36,8.54-8.2,12.68c-5.58,8.13-12.13,15.1-20.95,18.99c-5.21,2.3-10.65,2.82-16.09,1
	c-6.57-2.2-9.9-7.52-9.93-15.77c-0.03-9.27,2.19-18.09,4.57-26.89c3.4-12.57,6.78-25.15,10.06-37.76c0.56-2.15,0.79-4.47,0.75-6.71
	c-0.06-3.36-1.65-4.94-4.72-5.19c-0.78-0.07-1.62,0.17-2.33-0.07c-0.78-0.27-1.44-0.94-2.15-1.43c0.63-0.57,1.18-1.44,1.91-1.66
	c8.03-2.43,16.06-4.89,24.15-7.08c7.01-1.9,8.53-0.09,6.53,7.38c-5.64,21.1-11.35,42.17-16.93,63.29
	c-1.36,5.16-2.65,10.38-1.54,15.87c1.1,5.41,3.64,7.03,8.54,5.37c5.83-1.98,10-6.38,13.79-11.23c10.62-13.61,17.7-29.25,22.19-46.35
	c2.28-8.71,4.58-17.41,7.02-26.07c0.28-1.01,1.38-2.22,2.3-2.48c6.05-1.69,12.15-3.2,18.26-4.66c2.52-0.6,2.98,0.07,2.2,2.81
	c-7.02,24.58-14.07,49.16-21.03,73.76c-0.91,3.23-1.69,6.58-1.93,9.92c-0.12,1.72,0.63,4.37,1.79,5.1c1.13,0.71,3.58,0.01,4.93-0.95
	c2.3-1.62,4.2-3.92,6.25-5.94c0.58-0.57,1.02-1.39,1.69-1.74c0.67-0.35,1.54-0.26,2.33-0.36c-0.03,0.78,0.22,1.8-0.14,2.31
	c-2.61,3.73-4.99,7.78-8.13,10.93c-6.35,6.36-13.88,8.65-22.45,5.93c-3.62-1.15-5.99-3.54-5.81-7.62
	c0.27-5.89,1.01-11.77,1.76-17.63c0.33-2.58,1.17-5.08,1.78-7.61C277.96,552.21,277.81,552.15,277.66,552.1z"/>
<path d="M219.3,437.86c-0.26,1.51-0.37,2.7-0.68,3.82c-9.58,34.57-19.22,69.12-28.76,103.71c-2.11,7.67-3.94,15.43-5.79,23.18
	c-0.83,3.47-1.2,7.37,1.4,9.86c2.61,2.51,5.94,0.77,8.92-0.22c1.26-0.42,2.5-0.92,3.75-1.39c0.19,0.26,0.38,0.52,0.57,0.78
	c-0.81,1.35-1.49,2.84-2.47,4.03c-4.15,5.04-9.66,7.45-15.62,8.17c-3.81,0.46-7.79,0.05-11.6-0.61c-4.27-0.74-6.4-4.12-7.08-8.66
	c-1.2-7.95,0.17-15.62,2.31-23.13c7-24.58,14.13-49.12,21.19-73.68c1.86-6.48,3.66-12.97,5.44-19.48c0.37-1.35,0.57-2.76,0.73-4.16
	c0.44-3.85-0.54-5.88-3.83-7.4c-1.74-0.8-3.66-1.14-5.44-1.86c-0.61-0.25-1.04-1.02-1.55-1.55c0.53-0.5,0.99-1.29,1.6-1.47
	c11.41-3.28,22.84-6.49,34.28-9.68C217.38,437.91,218.16,437.96,219.3,437.86z"/>
<path d="M456.36,553.29c-0.25,0.96-0.28,2.09-0.78,2.85c-10.41,15.78-23.63,25.91-42.45,24.86c-15.13-0.84-24.1-11.01-24.4-28.14
	c-0.26-14.79,3.97-28.26,11.11-40.66c6.74-11.69,14.49-22.58,25.85-29.36c9.46-5.65,19.73-8.32,30.38-4.42
	c11.81,4.32,15.8,18.22,8.92,29.5c-5.2,8.53-13.07,12.75-21.61,15.81c-8.65,3.09-17.51,4.9-26.67,4.22c-1.96-0.15-3,0.53-3.54,2.72
	c-1.99,8.05-3.84,16.06-2.41,24.51c2.22,13.17,10.04,18.33,21.85,14.43c7.45-2.46,13.41-7.41,18.99-13.03
	c1.29-1.3,2.6-2.58,3.91-3.87C455.8,552.9,456.08,553.1,456.36,553.29z M415.6,522.68c0.87,0.1,1.3,0.23,1.7,0.18
	c10.4-1.3,19.72-5.35,27.28-13.36c3.78-4,6.67-8.71,7.19-14.7c0.36-4.14,0.01-8.09-3.48-10.59c-3.57-2.55-6.92-0.72-9.93,1.48
	C426.24,494.54,420.09,507.73,415.6,522.68z"/>
<path d="M358.06,519.89c0.72-1.09,1.43-2.18,2.15-3.26c5.32-8.04,10.5-16.19,16.02-24.07c3.25-4.64,7.49-8.13,12.79-9.81
	c0.67-0.21,1.34-0.39,2.03-0.5c5.26-0.82,6.67,0.87,5.03,6.19c-1.4,4.56-2.9,9.09-4.52,13.56c-0.25,0.69-1.49,1.62-2,1.45
	c-8.06-2.64-14.06,1.57-19.53,7.01c-6.55,6.51-10.85,14.8-13.84,23.7c-5.29,15.76-10.17,31.69-15.06,47.6
	c-0.79,2.57-1.88,3.24-4.25,3.24c-4.59,0-9.18,0.45-13.77,0.69c-0.67,0.03-1.35-0.1-2.51-0.19c1-3.76,1.89-7.26,2.85-10.73
	c6.3-22.85,12.62-45.71,18.93-68.56c0.05-0.18,0.11-0.36,0.16-0.54c1.76-6.75,0.73-8.57-5.53-10.21c-1.4-0.37-2.69-1.2-4.03-1.82
	c1.36-0.76,2.64-1.87,4.08-2.23c8.89-2.24,17.8-4.32,26.72-6.42c3.02-0.71,3.67,0,2.7,3.33c-2.84,9.71-5.81,19.37-8.71,29.06
	c-0.2,0.67-0.33,1.36-0.5,2.04C357.52,519.57,357.79,519.73,358.06,519.89z"/>
<path d="M505.31,439.38c-0.15,3.89-1.52,6.95-4.15,8.81c-7.4,5.24-14.9,10.32-22.53,15.16c-3.58,2.27-7.52,3.9-11.36,5.65
	c-0.9,0.41-2.08,0.09-3.13,0.11c0.35-0.97,0.47-2.16,1.07-2.88c8.58-10.26,17.2-20.49,25.89-30.65c2.54-2.97,5.88-3.53,9.39-2.68
	C503.45,433.62,505.34,436.43,505.31,439.38z"/>
</svg>
